<mxfile host="app.diagrams.net" modified="2023-11-20T07:08:55.595Z" agent="Mozilla/5.0 (Windows NT 10.0; Win64; x64) AppleWebKit/537.36 (KHTML, like Gecko) Chrome/119.0.0.0 Safari/537.36 Edg/119.0.0.0" etag="ygkw5QLwPmwRbLsEqViX" version="22.1.3" type="device">
  <diagram name="Seite-1" id="0NsEZmdlxZwcnF9jEizN">
    <mxGraphModel dx="1386" dy="751" grid="1" gridSize="10" guides="1" tooltips="1" connect="1" arrows="1" fold="1" page="1" pageScale="1" pageWidth="827" pageHeight="1169" math="0" shadow="0">
      <root>
        <mxCell id="0" />
        <mxCell id="1" parent="0" />
        <mxCell id="VuZYO-ba5Akp1SjeqLfg-2" value="" style="ellipse;whiteSpace=wrap;html=1;aspect=fixed;" parent="1" vertex="1">
          <mxGeometry x="170" y="100" width="551.5" height="551.5" as="geometry" />
        </mxCell>
        <mxCell id="VuZYO-ba5Akp1SjeqLfg-9" value="&lt;font style=&quot;font-size: 22px;&quot;&gt;ISEAG&lt;/font&gt;" style="text;html=1;strokeColor=none;fillColor=none;align=center;verticalAlign=middle;whiteSpace=wrap;rounded=0;" parent="1" vertex="1">
          <mxGeometry x="414" y="110" width="95" height="40" as="geometry" />
        </mxCell>
        <mxCell id="VuZYO-ba5Akp1SjeqLfg-14" value="" style="ellipse;whiteSpace=wrap;html=1;" parent="1" vertex="1">
          <mxGeometry x="210" y="160" width="496.5" height="430" as="geometry" />
        </mxCell>
        <mxCell id="VuZYO-ba5Akp1SjeqLfg-11" value="" style="ellipse;whiteSpace=wrap;html=1;" parent="1" vertex="1">
          <mxGeometry x="394.25" y="207.5" width="220" height="222.5" as="geometry" />
        </mxCell>
        <mxCell id="VuZYO-ba5Akp1SjeqLfg-10" value="&lt;font style=&quot;font-size: 19px;&quot;&gt;Garantiefall Prozess&lt;/font&gt;" style="text;html=1;strokeColor=none;fillColor=none;align=center;verticalAlign=middle;whiteSpace=wrap;rounded=0;" parent="1" vertex="1">
          <mxGeometry x="465.75" y="220" width="88.5" height="70" as="geometry" />
        </mxCell>
        <mxCell id="VuZYO-ba5Akp1SjeqLfg-12" value="&lt;font style=&quot;font-size: 16px;&quot;&gt;BPMN&lt;/font&gt;" style="ellipse;whiteSpace=wrap;html=1;" parent="1" vertex="1">
          <mxGeometry x="454.25" y="291.25" width="100" height="55" as="geometry" />
        </mxCell>
        <mxCell id="VuZYO-ba5Akp1SjeqLfg-16" value="&lt;font style=&quot;font-size: 19px;&quot;&gt;ISE Support&lt;/font&gt;" style="text;html=1;strokeColor=none;fillColor=none;align=center;verticalAlign=middle;whiteSpace=wrap;rounded=0;" parent="1" vertex="1">
          <mxGeometry x="399" y="160" width="110" height="60" as="geometry" />
        </mxCell>
        <mxCell id="VuZYO-ba5Akp1SjeqLfg-23" style="rounded=0;orthogonalLoop=1;jettySize=auto;html=1;fillColor=#f8cecc;strokeColor=#b85450;" parent="1" source="VuZYO-ba5Akp1SjeqLfg-18" edge="1">
          <mxGeometry relative="1" as="geometry">
            <mxPoint x="500" y="430" as="targetPoint" />
          </mxGeometry>
        </mxCell>
        <mxCell id="VuZYO-ba5Akp1SjeqLfg-38" style="rounded=0;orthogonalLoop=1;jettySize=auto;html=1;entryX=1;entryY=1;entryDx=0;entryDy=0;fillColor=#f8cecc;strokeColor=#b85450;" parent="1" source="VuZYO-ba5Akp1SjeqLfg-18" target="VuZYO-ba5Akp1SjeqLfg-2" edge="1">
          <mxGeometry relative="1" as="geometry" />
        </mxCell>
        <mxCell id="VuZYO-ba5Akp1SjeqLfg-18" value="&lt;font style=&quot;font-size: 16px;&quot;&gt;ISO 9001&lt;/font&gt;" style="ellipse;whiteSpace=wrap;html=1;" parent="1" vertex="1">
          <mxGeometry x="420" y="710" width="111" height="85" as="geometry" />
        </mxCell>
        <mxCell id="VuZYO-ba5Akp1SjeqLfg-29" style="rounded=0;orthogonalLoop=1;jettySize=auto;html=1;fillColor=#f8cecc;strokeColor=#b85450;" parent="1" source="VuZYO-ba5Akp1SjeqLfg-24" target="VuZYO-ba5Akp1SjeqLfg-18" edge="1">
          <mxGeometry relative="1" as="geometry" />
        </mxCell>
        <mxCell id="VuZYO-ba5Akp1SjeqLfg-32" style="rounded=0;orthogonalLoop=1;jettySize=auto;html=1;entryX=0;entryY=0.5;entryDx=0;entryDy=0;startArrow=classic;startFill=1;fillColor=#d5e8d4;strokeColor=#82b366;" parent="1" source="VuZYO-ba5Akp1SjeqLfg-24" target="VuZYO-ba5Akp1SjeqLfg-12" edge="1">
          <mxGeometry relative="1" as="geometry" />
        </mxCell>
        <mxCell id="VuZYO-ba5Akp1SjeqLfg-24" value="&lt;font style=&quot;font-size: 16px;&quot;&gt;Supporter&lt;/font&gt;" style="ellipse;whiteSpace=wrap;html=1;" parent="1" vertex="1">
          <mxGeometry x="250" y="346.25" width="120" height="80" as="geometry" />
        </mxCell>
        <mxCell id="VuZYO-ba5Akp1SjeqLfg-31" style="rounded=0;orthogonalLoop=1;jettySize=auto;html=1;entryX=1;entryY=0;entryDx=0;entryDy=0;fillColor=#f8cecc;strokeColor=#b85450;" parent="1" source="VuZYO-ba5Akp1SjeqLfg-30" target="VuZYO-ba5Akp1SjeqLfg-2" edge="1">
          <mxGeometry relative="1" as="geometry" />
        </mxCell>
        <mxCell id="VuZYO-ba5Akp1SjeqLfg-50" style="rounded=0;orthogonalLoop=1;jettySize=auto;html=1;entryX=1;entryY=0.5;entryDx=0;entryDy=0;fillColor=#f8cecc;strokeColor=#b85450;" parent="1" source="VuZYO-ba5Akp1SjeqLfg-30" target="VuZYO-ba5Akp1SjeqLfg-36" edge="1">
          <mxGeometry relative="1" as="geometry" />
        </mxCell>
        <mxCell id="VuZYO-ba5Akp1SjeqLfg-30" value="&lt;font style=&quot;font-size: 15px;&quot;&gt;Acer GerÃ¤te&lt;/font&gt;" style="ellipse;whiteSpace=wrap;html=1;" parent="1" vertex="1">
          <mxGeometry x="650" y="30" width="120" height="80" as="geometry" />
        </mxCell>
        <mxCell id="VuZYO-ba5Akp1SjeqLfg-36" value="&lt;font style=&quot;font-size: 15px;&quot;&gt;Kunde&lt;/font&gt;" style="ellipse;whiteSpace=wrap;html=1;" parent="1" vertex="1">
          <mxGeometry x="100" y="50" width="120" height="80" as="geometry" />
        </mxCell>
        <mxCell id="VuZYO-ba5Akp1SjeqLfg-37" style="rounded=0;orthogonalLoop=1;jettySize=auto;html=1;entryX=0.5;entryY=1;entryDx=0;entryDy=0;fillColor=#d5e8d4;strokeColor=#82b366;startArrow=classic;startFill=1;" parent="1" source="VuZYO-ba5Akp1SjeqLfg-24" target="VuZYO-ba5Akp1SjeqLfg-36" edge="1">
          <mxGeometry relative="1" as="geometry" />
        </mxCell>
        <mxCell id="VuZYO-ba5Akp1SjeqLfg-43" style="rounded=0;orthogonalLoop=1;jettySize=auto;html=1;entryX=0;entryY=1;entryDx=0;entryDy=0;startArrow=classic;startFill=1;fillColor=#d5e8d4;strokeColor=#82b366;" parent="1" source="VuZYO-ba5Akp1SjeqLfg-42" target="VuZYO-ba5Akp1SjeqLfg-24" edge="1">
          <mxGeometry relative="1" as="geometry" />
        </mxCell>
        <mxCell id="VuZYO-ba5Akp1SjeqLfg-42" value="&lt;font style=&quot;font-size: 15px;&quot;&gt;Acer&amp;nbsp;&lt;/font&gt;" style="ellipse;whiteSpace=wrap;html=1;" parent="1" vertex="1">
          <mxGeometry x="50" y="540" width="130" height="90" as="geometry" />
        </mxCell>
        <mxCell id="VuZYO-ba5Akp1SjeqLfg-45" style="rounded=0;orthogonalLoop=1;jettySize=auto;html=1;entryX=0;entryY=1;entryDx=0;entryDy=0;fillColor=#d5e8d4;strokeColor=#82b366;startArrow=classic;startFill=1;" parent="1" source="VuZYO-ba5Akp1SjeqLfg-44" target="VuZYO-ba5Akp1SjeqLfg-36" edge="1">
          <mxGeometry relative="1" as="geometry" />
        </mxCell>
        <mxCell id="VuZYO-ba5Akp1SjeqLfg-46" style="rounded=0;orthogonalLoop=1;jettySize=auto;html=1;entryX=0.5;entryY=0;entryDx=0;entryDy=0;startArrow=classic;startFill=1;fillColor=#d5e8d4;strokeColor=#82b366;" parent="1" source="VuZYO-ba5Akp1SjeqLfg-44" target="VuZYO-ba5Akp1SjeqLfg-42" edge="1">
          <mxGeometry relative="1" as="geometry" />
        </mxCell>
        <mxCell id="VuZYO-ba5Akp1SjeqLfg-47" style="rounded=0;orthogonalLoop=1;jettySize=auto;html=1;entryX=0;entryY=0.397;entryDx=0;entryDy=0;startArrow=classic;startFill=1;fillColor=#d5e8d4;strokeColor=#82b366;entryPerimeter=0;" parent="1" source="VuZYO-ba5Akp1SjeqLfg-44" target="VuZYO-ba5Akp1SjeqLfg-24" edge="1">
          <mxGeometry relative="1" as="geometry" />
        </mxCell>
        <mxCell id="VuZYO-ba5Akp1SjeqLfg-44" value="&lt;font style=&quot;font-size: 15px;&quot;&gt;Post&lt;/font&gt;" style="ellipse;whiteSpace=wrap;html=1;" parent="1" vertex="1">
          <mxGeometry x="20" y="279" width="120" height="80" as="geometry" />
        </mxCell>
        <mxCell id="VuZYO-ba5Akp1SjeqLfg-49" style="rounded=0;orthogonalLoop=1;jettySize=auto;html=1;entryX=0;entryY=1;entryDx=0;entryDy=0;fillColor=#f8cecc;strokeColor=#b85450;" parent="1" source="VuZYO-ba5Akp1SjeqLfg-48" target="VuZYO-ba5Akp1SjeqLfg-14" edge="1">
          <mxGeometry relative="1" as="geometry" />
        </mxCell>
        <mxCell id="VuZYO-ba5Akp1SjeqLfg-48" value="&lt;font style=&quot;font-size: 15px;&quot;&gt;Reparaturanfrage&lt;/font&gt;" style="ellipse;whiteSpace=wrap;html=1;" parent="1" vertex="1">
          <mxGeometry x="210" y="680" width="120" height="80" as="geometry" />
        </mxCell>
      </root>
    </mxGraphModel>
  </diagram>
</mxfile>
